<svg width="66" height="66" viewBox="0 0 66 66" fill="none" xmlns="http://www.w3.org/2000/svg">
<rect width="66" height="66" rx="24" fill="url(#paint0_linear_1_234)"/>
<path fill-rule="evenodd" clip-rule="evenodd" d="M33.1935 33.7498C35.837 33.7498 37.9801 31.6068 37.9801 28.9632C37.9801 26.3197 35.837 24.1766 33.1935 24.1766C30.5499 24.1766 28.4069 26.3197 28.4069 28.9632C28.4069 31.6068 30.5499 33.7498 33.1935 33.7498Z" fill="white"/>
<path fill-rule="evenodd" clip-rule="evenodd" d="M37.3476 33.2141C36.2714 34.2402 34.8064 34.8716 33.1924 34.8716C31.5784 34.8716 30.1134 34.2402 29.0372 33.2141C28.8519 33.1682 28.6665 33.1228 28.4865 33.0998C28.3065 33.0768 28.1324 33.0768 27.9701 33.1019C27.8082 33.1265 27.6587 33.1767 27.4841 33.2392C27.3094 33.3012 27.1102 33.376 26.8608 33.5255C26.6119 33.6751 26.3123 33.8994 26.026 34.2739C25.7392 34.6472 25.4652 35.1713 25.2158 35.7946C24.9664 36.4174 24.742 37.1407 24.6176 37.8388C24.4931 38.5364 24.468 39.21 24.4558 39.7207C24.4429 40.2319 24.4429 40.5812 24.4931 40.9177C24.5428 41.2542 24.6422 41.5779 24.867 41.9022C25.0913 42.2264 25.4401 42.5506 25.8513 42.7996C26.2626 43.049 26.7363 43.2237 27.3847 43.3107C28.0326 43.3978 28.8551 43.3978 29.8522 43.3978H32.7438H33.1924H33.641H36.5326C37.5297 43.3978 38.3522 43.3978 39.0001 43.3107C39.6485 43.2237 40.1222 43.049 40.5335 42.7996C40.9447 42.5506 41.2935 42.2264 41.5178 41.9022C41.7426 41.5779 41.842 41.2542 41.8917 40.9177C41.9419 40.5812 41.9419 40.2319 41.929 39.7207C41.9168 39.21 41.8917 38.5364 41.7672 37.8388C41.6428 37.1407 41.4185 36.4174 41.169 35.7946C40.9196 35.1713 40.6456 34.6472 40.3588 34.2739C40.0725 33.8994 39.7729 33.6751 39.524 33.5255C39.2746 33.376 39.0754 33.3012 38.9008 33.2392C38.7261 33.1767 38.5766 33.1265 38.4147 33.1019C38.2524 33.0768 38.0783 33.0768 37.8983 33.0998C37.7183 33.1228 37.533 33.1682 37.3476 33.2141Z" fill="white"/>
<path fill-rule="evenodd" clip-rule="evenodd" d="M38.293 31.3221C39.1437 32.0988 40.2763 32.5731 41.519 32.5731C44.1619 32.5731 46.3044 30.4301 46.3044 27.7865C46.3044 25.143 44.1619 22.9999 41.519 22.9999C39.8219 22.9999 38.3304 23.884 37.4813 25.2167C38.4393 26.0916 39.0406 27.3523 39.0406 28.7523C39.0406 29.6977 38.7661 30.5802 38.293 31.3221Z" fill="white"/>
<path fill-rule="evenodd" clip-rule="evenodd" d="M27.707 31.3221C26.8563 32.0988 25.7237 32.5731 24.481 32.5731C21.8381 32.5731 19.6956 30.4301 19.6956 27.7865C19.6956 25.143 21.8381 22.9999 24.481 22.9999C26.1781 22.9999 27.6696 23.884 28.5187 25.2167C27.5607 26.0916 26.9594 27.3523 26.9594 28.7523C26.9594 29.6977 27.2339 30.5802 27.707 31.3221Z" fill="white"/>
<path fill-rule="evenodd" clip-rule="evenodd" d="M45.4096 32.2142C44.3651 33.2093 42.9551 33.8337 41.3976 33.8701L41.5697 34.0762C41.8566 34.4496 42.1307 34.9736 42.3802 35.597C42.6297 36.2198 42.8541 36.9431 42.9786 37.6412C43.1031 38.3388 43.1282 39.0124 43.1405 39.523C43.1533 40.0342 43.1533 40.3836 43.1031 40.7201C43.0534 41.0566 42.954 41.3803 42.7291 41.7045C42.5618 41.946 42.3257 42.1879 42.0463 42.3979H44.5943C45.5918 42.3979 46.4146 42.3979 47.0627 42.3108C47.7114 42.2237 48.1853 42.0491 48.5967 41.7996C49.0081 41.5507 49.357 41.2265 49.5814 40.9022C49.8063 40.578 49.9057 40.2543 49.9554 39.9178C50.0056 39.5813 50.0056 39.2319 49.9928 38.7207C49.9805 38.2101 49.9554 37.5365 49.8309 36.8389C49.7064 36.1408 49.482 35.4175 49.2325 34.7947C48.983 34.1713 48.7089 33.6473 48.422 33.2739C48.1356 32.8995 47.8359 32.6751 47.5869 32.5256C47.3374 32.376 47.1381 32.3012 46.9634 32.2393C46.7887 32.1768 46.6391 32.1266 46.4772 32.102C46.3147 32.0769 46.1406 32.0769 45.9605 32.0999C45.7804 32.1228 45.595 32.1682 45.4096 32.2142Z" fill="white"/>
<path fill-rule="evenodd" clip-rule="evenodd" d="M20.5903 32.2142C21.6349 33.2093 23.0449 33.8337 24.6023 33.8701L24.4303 34.0762C24.1434 34.4496 23.8693 34.9736 23.6198 35.597C23.3703 36.2198 23.1459 36.9431 23.0214 37.6412C22.8969 38.3388 22.8718 39.0124 22.8595 39.523C22.8467 40.0342 22.8467 40.3836 22.8969 40.7201C22.9466 41.0566 23.0459 41.3803 23.2709 41.7045C23.4381 41.946 23.6743 42.1879 23.9537 42.3979H21.4057C20.4081 42.3979 19.5853 42.3979 18.9372 42.3108C18.2886 42.2237 17.8147 42.0491 17.4033 41.7996C16.9919 41.5507 16.643 41.2265 16.4186 40.9022C16.1936 40.578 16.0942 40.2543 16.0446 39.9178C15.9943 39.5813 15.9943 39.2319 16.0072 38.7207C16.0194 38.2101 16.0446 37.5365 16.169 36.8389C16.2935 36.1408 16.5179 35.4175 16.7675 34.7947C17.017 34.1713 17.2911 33.6473 17.578 33.2739C17.8644 32.8995 18.1641 32.6751 18.4131 32.5256C18.6626 32.376 18.8619 32.3012 19.0366 32.2393C19.2113 32.1768 19.3609 32.1266 19.5228 32.102C19.6852 32.0769 19.8594 32.0769 20.0395 32.0999C20.2195 32.1228 20.4049 32.1682 20.5903 32.2142Z" fill="white"/>
<defs>
<linearGradient id="paint0_linear_1_234" x1="13.5" y1="2.86509e-07" x2="45" y2="66" gradientUnits="userSpaceOnUse">
<stop stop-color="#FF858A"/>
<stop offset="1" stop-color="#F04148"/>
</linearGradient>
</defs>
</svg>
